<svg xmlns=http://www.w3.org/2000/svg viewBox="1.9050300121307373 0.6860354542732239 247.18978881835938 56.624969482421875" fill=none preserveAspectRatio="xMidYMid meet" role=img>
<path d="M124.58 33.0863H102.236C102.884 37.2623 105.236 39.4373 109.058 39.4373C112.232 39.4373 114.644 37.9073 115.232 35.5553L124.169 35.9663C122.582 42.5513 116.465 46.1393 109.058 46.1393C99.2961 46.1393 92.9481 39.5543 92.9481 30.4973C92.9481 21.4403 99.5931 14.7983 109.058 14.7983C119.054 14.7983 125.405 21.2063 124.58 33.0863ZM115.349 27.2063C114.701 23.1503 112.232 21.5033 109.058 21.5033C105.53 21.5033 103.178 23.4443 102.356 27.2063H115.352H115.349Z" fill=#FFFBF0></path>
<path d="M130.439 22.7963H125.501V15.5633H128.03C130.028 15.5633 131.03 14.5643 131.03 12.5633V7.1543H139.556V15.5633H147.14V22.8533H139.556V35.4353C139.556 37.6703 140.555 38.7863 143.201 38.7863C144.26 38.7863 145.613 38.6093 147.257 38.3153V45.3713C144.845 45.9593 141.965 46.1363 140.318 46.1363C133.733 46.1363 130.439 43.0793 130.439 37.2563V22.7903V22.7963Z" fill=#FFFBF0></path>
<path d="M157.016 57.311C155.486 57.311 154.016 57.077 152.723 56.606V49.727C153.605 49.904 154.31 49.961 155.252 49.961C158.252 49.961 159.956 49.079 160.778 46.667C160.955 46.079 161.132 45.608 161.132 45.08C161.132 44.198 160.661 43.493 160.073 42.023L149.078 15.563H159.191L166.247 34.202L172.481 15.563H182.123L169.952 47.375C167.306 54.254 163.718 57.311 157.016 57.311Z" fill=#FFFBF0></path>
<path d="M184.136 56.5493V15.5663H193.19V19.3883C195.188 16.5083 198.305 14.8013 202.658 14.8013C210.302 14.8013 215.594 21.2093 215.594 30.4433C215.594 39.6773 210.302 46.1423 202.658 46.1423C198.425 46.1423 195.308 44.4953 193.31 41.7323V56.5493H184.136ZM206.186 30.4403C206.186 25.0883 203.774 21.8543 199.778 21.8543C195.782 21.8543 193.133 25.0283 193.133 30.4403C193.133 35.8523 195.896 39.0833 199.778 39.0833C203.66 39.0833 206.186 35.8493 206.186 30.4403Z" fill=#FFFBF0></path>
<path d="M249.023 33.0863H226.679C227.327 37.2623 229.679 39.4373 233.501 39.4373C236.675 39.4373 239.087 37.9073 239.675 35.5553L248.612 35.9663C247.025 42.5513 240.908 46.1393 233.501 46.1393C223.739 46.1393 217.391 39.5543 217.391 30.4973C217.391 21.4403 224.036 14.7983 233.501 14.7983C243.497 14.7983 249.848 21.2063 249.023 33.0863ZM239.792 27.2063C239.144 23.1503 236.675 21.5033 233.501 21.5033C229.973 21.5033 227.621 23.4443 226.799 27.2063H239.795H239.792Z" fill=#FFFBF0></path>
<path d="M15.018 45.473V12.956H1.90503V4.31299H38.067V12.956H24.954V45.473H15.018Z" fill=#FFFBF0></path>
<path d="M62.5791 33.1855H40.2351C40.8831 37.3615 43.2351 39.5365 47.0571 39.5365C50.2311 39.5365 52.6431 38.0065 53.2311 35.6545L62.1681 36.0655C60.5811 42.6505 54.4641 46.2385 47.0571 46.2385C37.2951 46.2385 30.9471 39.6535 30.9471 30.5965C30.9471 21.5395 37.5921 14.8975 47.0571 14.8975C57.0531 14.8975 63.4041 21.3055 62.5791 33.1855ZM53.3451 27.3055C52.6971 23.2495 50.2281 21.6025 47.0541 21.6025C43.5261 21.6025 41.1741 23.5435 40.3521 27.3055H53.3481H53.3451Z" fill=#FFFBF0></path>
<path d="M96.128 41.6333C94.4 39.9473 93.479 37.6733 92.747 35.2283L92.549 34.5623L91.919 34.8563C88.928 36.2573 81.434 39.2213 76.424 36.5273C72.866 34.1723 72.287 25.2593 72.26 20.1653C72.35 16.0043 72.857 11.4803 75.932 9.4823C76.709 9.0413 77.573 8.9543 78.302 9.2483C78.983 9.5213 79.466 10.0853 79.706 10.8953C80.174 12.2873 79.979 14.0303 79.115 16.2263C78.941 16.6763 78.773 17.1113 78.611 17.5343C77.414 20.6543 75.83 23.4113 73.568 26.3423L73.418 26.5373L73.448 26.7803C73.622 28.2113 74.249 32.4023 75.701 34.6043C75.986 35.0393 76.361 35.4053 76.784 35.7053L77.069 35.3423C77.15 35.2703 86.699 22.4093 88.016 15.1943C88.709 11.4263 87.836 7.52029 85.685 4.7453C83.804 2.3213 81.161 0.926298 78.035 0.707298C75.038 0.518298 72.158 1.5923 69.722 3.8093C67.61 5.7293 65.972 8.3843 65.105 11.2823C64.172 14.4083 64.019 17.6063 63.989 20.3183C63.869 27.8933 65.021 38.0123 71.18 43.1903C73.763 45.3623 77.009 46.4633 80.834 46.4633C82.244 46.4633 83.75 46.3133 85.319 46.0133C88.661 45.3443 92.642 44.1143 95.96 42.6083L96.758 42.2453L96.131 41.6333H96.128Z" fill=#FFFBF0></path>
</svg>